# xmcd
#
# Track frame offsets: 
#        150
#        13735
#        27910
#        42020
#        55905
#        70667
#        84370
#        98705
#        113292
#        125635
#        137360
#        156335
#        178860
#        200410
#        228255
#        248960
#
# Disc length: 3485 seconds
#
# Revision: 0
# Processed by: cddbd v1.5.2PL0 Copyright (c) Steve Scherf et al.
# Submitted via: ExactAudioCopy v0.95b4
#
DISCID=c80d9b10
DTITLE=Louis Amstrong - Historische Aufnahmen
DYEAR=1995
DGENRE=Blues
TTITLE0=Struttin' With Some Barbecue
TTITLE1=Twelfth Sreet Rag
TTITLE2=Cornet Shop Suey
TTITLE3=Malancholy Blues
TTITLE4=Basin Street Blues
TTITLE5=Alligator Crawl
TTITLE6=A Monday Date
TTITLE7=Skid-Dat-De-Dat
TTITLE8=Yes, I'am In The Barrel
TTITLE9=Come Back Sweet Papa
TTITLE10=Black And Blue
TTITLE11=Royal Garden Blues
TTITLE12=That's My Desire
TTITLE13=Muskrat Ramble
TTITLE14=I Cried For You
TTITLE15=Baby, Won't You Please Come Home
EXTD=
EXTT0=
EXTT1=
EXTT2=
EXTT3=
EXTT4=
EXTT5=
EXTT6=
EXTT7=
EXTT8=
EXTT9=
EXTT10=
EXTT11=
EXTT12=
EXTT13=
EXTT14=
EXTT15=
PLAYORDER=
